<svg id="Layer_1" data-name="Layer 1" xmlns="http://www.w3.org/2000/svg" width="442.83" height="512" viewBox="0 0 442.83 512">
  <g id="Group_57" data-name="Group 57">
    <g id="Polygon_4" data-name="Polygon 4">
      <path d="M477.42,127.51l-.57,256L255.43,512,34.58,384.49l.57-256L256.57,0Z" transform="translate(-34.58)" style="fill: #fff"/>
    </g>
    <g id="logo-atol-isolated">
      <g id="atol_jetline" data-name="atol jetline">
        <g id="Path_44" data-name="Path 44">
          <path d="M253.48,430c-.52-.41-.87-1-1.57-1-1-.06-2,0-3,0-1.91,0-3.78-.06-5.67-.12a98.82,98.82,0,0,1-11-.75c-1.79-.29-3.59-.73-5.39-1.1l-5.44-1.1c-1.79-.37-7.24-1.73-10.77-2.88s-7.29-2.2-11-3.36c-.87-.28-1.74-.52-2.61-.8a9.31,9.31,0,0,1-2.43-1,11.52,11.52,0,0,0-2.2-1.15c-.87-.41-1.79-.81-2.66-1.22-3.31-1.43-6.56-3-9.84-4.51a41.15,41.15,0,0,1-4.35-2.32c-1.38-.87-2.54-2-3.94-2.88a56.92,56.92,0,0,1-8.16-5,26.24,26.24,0,0,0-7.34-5.28,4.74,4.74,0,0,1-1-.34c-.29-.18-.41-.47-.63-.63l-2.16-1.8c-1.39-1.15-2.72-2.32-4.06-3.54-2.66-2.37-5.33-4.81-7.81-7.34a179.47,179.47,0,0,1-14.08-16.1c-2.2-2.78-4.23-5.67-6.2-8.62s-3.79-6.23-5.65-9.45a121.17,121.17,0,0,1-9.83-19.75c-1.22-3.4-2.38-6.83-3.59-10.31s-2.44-7.07-3.31-10.64-1.51-7.36-2.2-11.06l-1-5.55a43,43,0,0,1-.45-5.55,35.58,35.58,0,0,0-.74-5.44,45.49,45.49,0,0,1-.73-5.56c-.24-3.72-.07-7.47.06-11.18.06-1.83.06-3.71.06-5.56a22.55,22.55,0,0,1,0-2.6,25.58,25.58,0,0,1,.46-2.78c.17-.81.41-1.68.53-2.49a8,8,0,0,0-.07-2,4,4,0,0,1,1-3.71,35,35,0,0,1,1.52-10.31c.41-1.74.58-3.54,1-5.28s.87-3.46,1.4-5.21a186.09,186.09,0,0,1,7-20.15,197.05,197.05,0,0,1,9.78-19c1.8-3.12,3.59-6.19,5.62-9.14s4.31-5.91,6.61-8.81,4.57-5.79,7.06-8.51c2.27-2.6,4.41-5.33,6.9-7.7s5.33-4.64,8-7,5.48-4.6,8.25-6.81A131.08,131.08,0,0,1,176,124a200,200,0,0,1,19.45-9.39c3.36-1.38,6.77-2.66,10.25-3.78s7-2,10.49-3.19a24.18,24.18,0,0,1,4.9-1.12c1.61-.23,3.25-.52,4.86-.63a16.07,16.07,0,0,0,4.46-.73,13.48,13.48,0,0,1,1.91-.93c.87-.11,1.8-.11,2.67-.18,3.78-.28,7.53-.73,11.3-.86,1.9-.12,3.78-.18,5.67-.18s3.78.18,5.68.18,3.77-.06,5.67-.06,3.82.11,5.74.28,3.82.29,5.75.41c.92.06,1.83.18,2.77.23.46.07.94.07,1.39.12.24,0,.47.06.73.06a3.8,3.8,0,0,0,.53.46,6.39,6.39,0,0,0,3.88.76,11.78,11.78,0,0,1,2,.11,6.1,6.1,0,0,1,2,.73,10.14,10.14,0,0,0,4.22.63c.74.07,1.44.07,2.16.18a14.56,14.56,0,0,1,2.32.74,149.93,149.93,0,0,1,19.52,6.72,49.27,49.27,0,0,0,4.87,2.15c1.62.58,3.36,1,5,1.73a47.42,47.42,0,0,1,4.23,2.5c1.56.87,3.18,1.67,4.77,2.54q4.77,2.61,9.38,5.56c1.56,1,3.07,2,4.57,3s3,1.83,4.4,2.87a70.94,70.94,0,0,1,8.4,7.07c1.33,1.16,2.61,2.32,4,3.36a27.16,27.16,0,0,1,3.72,3.13c2.37,2.67,4.69,5.39,7.06,8s4.77,5.33,7,8.16a157.74,157.74,0,0,1,12.11,17.67,207.13,207.13,0,0,1,10,19.05c1.51,3.3,2.93,6.66,4.15,10.08s2.09,7,3.07,10.43,2,7,2.78,10.59,1.21,7.34,1.74,11c.29,1.84.52,3.71.73,5.56.06.87.12,1.79.18,2.67v1.32c0,.4-.12.76.23,1a4.76,4.76,0,0,1,.74.53v23.17a10.4,10.4,0,0,1-.74.75,4.38,4.38,0,0,0-.45,2.44c-.12,1.9-.29,3.82-.46,5.67a149.42,149.42,0,0,1-4.31,22.07c-.93,3.47-2.16,6.95-3.24,10.43a70.78,70.78,0,0,1-3.67,10c-.75,1.63-1.56,3.13-2.26,4.81s-1.28,3.24-2,4.87a102.63,102.63,0,0,1-5.1,9.61A147,147,0,0,1,371,382.27c-2.6,2.49-5.33,4.91-8,7.36-1.33,1.21-2.66,2.42-4,3.59s-2.72,2-4.06,2.93-2.6,2.16-4,3.13-2.87,1.91-4.31,2.87c-2.93,1.84-5.85,3.89-8.8,5.68a138.26,138.26,0,0,1-19.17,9.39A102.1,102.1,0,0,1,298.28,424c-1.68.36-3.37.87-5,1.32a38.45,38.45,0,0,1-5.1.94,19.31,19.31,0,0,0-4.81,1,23.16,23.16,0,0,1-4.92.52,22.84,22.84,0,0,0-2.2.87,10.44,10.44,0,0,1-2.6.41c-1.8.06-3.59.06-5.39.06h-2.71a13,13,0,0,0-1.4.07c-.34,0-.63.34-.87.58s-.46.46-.92.46H258a27.55,27.55,0,0,0-4.45-.24c-.46-.34,3.18,0,0,0ZM256,418.42c3.82,0,7.64.11,11.48-.06a57.31,57.31,0,0,0,10.77-1.21,30.72,30.72,0,0,1,4.69-.41,6.44,6.44,0,0,0,2-.46,11.82,11.82,0,0,1,2.37-.94,22.79,22.79,0,0,0,4.92-.75,39,39,0,0,1,4.57-1.79c1.68-.47,3.37-.74,5-1.1s3.43-.93,5.1-1.52a95.91,95.91,0,0,0,9.78-4.06c6.74-3,13.31-6.62,19.74-10.21a113.55,113.55,0,0,0,17.25-12.46A171,171,0,0,0,369,368.62c2.43-2.6,4.74-5.32,7.06-8a35.74,35.74,0,0,0,3.13-4.12c.93-1.51,1.91-3,2.87-4.46a164.5,164.5,0,0,0,9.79-16.26,100.17,100.17,0,0,0,6.72-15.48c1-3.18,2.38-6.2,3.4-9.33a46.89,46.89,0,0,0,1.33-4.81c.18-.8.24-1.56.36-2.37a6.2,6.2,0,0,0,.06-1.22,3.7,3.7,0,0,1,.53-1.32,33.39,33.39,0,0,0,2.37-9.79c.24-1.68.41-3.37.63-5s.63-3.36.8-5-.06-3.59-.1-5.39a33.68,33.68,0,0,1,.28-5.5c.23-1.86.52-3.71.58-5.56a22.69,22.69,0,0,0-.52-5.51,29.5,29.5,0,0,1-.46-5.55c0-1.8-.12-3.71.06-5.56a2.33,2.33,0,0,0,0-1.05,6.24,6.24,0,0,0-.46-1.1,19.77,19.77,0,0,1-.75-2.6c-.37-1.67-.59-3.4-.81-5.1a36.46,36.46,0,0,0-.93-5.09c-.41-1.44-.46-2.94-.8-4.41a8.25,8.25,0,0,0-.81-1.91,7.5,7.5,0,0,1-.76-2.49c-.17-.76-.23-1.56-.45-2.32a24.8,24.8,0,0,0-1-2.6c-1.33-3.48-2.37-7-3.7-10.43a102.59,102.59,0,0,0-4.44-10c-1.63-3.23-3.3-6.46-5-9.61a98.9,98.9,0,0,0-5.79-9.08,165.35,165.35,0,0,0-13.42-17.11,158.7,158.7,0,0,0-15.32-14.47,153.6,153.6,0,0,0-36.52-22.75,159.25,159.25,0,0,0-20.57-7.12,83.35,83.35,0,0,0-10.71-2.42c-1.63-.23-3.3-.29-5-.53s-3.12-1-4.75-1.28a46.6,46.6,0,0,1-5-.51c-.8-.18-1.67-.41-2.49-.58a13.61,13.61,0,0,0-2.78-.13c-3.71.11-7.41-.11-11.13-.17a47.67,47.67,0,0,0-11.12.8,10.64,10.64,0,0,1-2.32.41,17.24,17.24,0,0,1-2.38-.11,10.09,10.09,0,0,0-4.3.28,17.47,17.47,0,0,1-4.31.63,6.29,6.29,0,0,0-2,.46,3,3,0,0,0-.93.53c-.24.17-.24.24-.52.24h-.81a32.29,32.29,0,0,0-9.9,2.08c-1.63.51-3.19,1-4.87,1.43s-3.47.87-5.21,1.44a106.83,106.83,0,0,0-10.21,4.06,144.85,144.85,0,0,0-19.17,10.21c-3.07,1.9-6.14,3.88-9.08,6.08-2.61,2.15-5.27,4.45-8.16,6.46-1.33,1-2.72,2-3.95,3a44.65,44.65,0,0,0-3.64,3.64c-2.43,2.55-5,5-7.42,7.47a83.85,83.85,0,0,0-7,8.05c-2.26,2.87-4.3,5.9-6.55,8.92-1,1.43-2.08,2.87-3,4.3s-1.74,2.94-2.55,4.47a48.3,48.3,0,0,1-2.64,4.51,24.15,24.15,0,0,0-2.27,4c-.63,1.39-1.15,2.78-1.83,4.12-.35.63-.74,1.28-1,1.83a6.9,6.9,0,0,1-.63.87c-.22.29-.73.64-.76,1.05a47.43,47.43,0,0,1-3.36,9.68,135.91,135.91,0,0,0-6,21.13,42.06,42.06,0,0,0-.74,5.34c-.06.8-.11,1.62-.24,2.43a16.81,16.81,0,0,1-.73,2.54,39.91,39.91,0,0,0-.63,5.1c-.23,1.8-.8,3.54-.93,5.34s0,3.64,0,5.45-.11,3.64-.17,5.5a43.89,43.89,0,0,0,.17,5.5c.12.88.24,1.74.42,2.61s.51,1.8.63,2.72a15.74,15.74,0,0,1-.13,5.08,8.15,8.15,0,0,0,.75,4,36.4,36.4,0,0,1,.46,4.31c.18.75.41,1.51.59,2.26a22.83,22.83,0,0,1,.4,2.61,75.78,75.78,0,0,0,2.5,10.72c1,3.53,2,7,3.24,10.43s2.78,6.77,4.23,10.13c1.33,3.19,2.88,6.31,4.47,9.39a150.7,150.7,0,0,0,11,17.49c2,2.87,4.06,5.56,6.21,8.29a87.17,87.17,0,0,0,7.18,7.46c1.27,1.29,2.6,2.55,3.88,3.82s2.37,2.61,3.64,3.83c2.61,2.49,5.34,4.81,8.12,7s5.67,4.3,8.57,6.42,5.67,4.12,8.69,6c5.9,3.54,12.29,6.24,18.43,9.33l2.2,1.1a7.91,7.91,0,0,0,2.42,1.05,31.83,31.83,0,0,1,5.1,1.32c3.37,1.05,6.6,2.38,10.05,3.24,3.25.81,6.55,1.52,9.84,2.2s6.6,1.57,9.9,2A96.44,96.44,0,0,0,246,418a96.35,96.35,0,0,0,10,.37Z" transform="translate(-34.58)" style="fill: #444"/>
        </g>
        <g id="Path_45" data-name="Path 45">
          <path d="M317.73,296.91c-.11,1.62.12,3.24-.11,4.86a7.26,7.26,0,0,1-.63,2,5.48,5.48,0,0,0-.46,2.37,10,10,0,0,1-.17,2.26,15.54,15.54,0,0,1-1,2.16,15.21,15.21,0,0,0-.41,4.3,10.49,10.49,0,0,1-.47,2.21,13.27,13.27,0,0,0-.41,2.43,31.76,31.76,0,0,1-.4,4.77,13.57,13.57,0,0,1-.81,2.15,13.56,13.56,0,0,0-.52,2.67,17,17,0,0,1-.81,5.1,32.63,32.63,0,0,0-1.51,9.5c-.06.41-.06.87-.11,1.28-.24.06-.41.17-.63.24-.59.23-1.1.45-1.68.63s-.81-.12-1.32-.41a4.18,4.18,0,0,0-2.21-.53c-.73,0-1.39.06-2,0a19,19,0,0,1-2.67-.58c-1.74-.41-3.47-.63-5.21-1s-3.65-.63-5.45-1-3.71-.64-5.62-1a39.24,39.24,0,0,0-5.27-.81,10.17,10.17,0,0,1-2.32-.35,11.14,11.14,0,0,0-2.32-.86c-.75-.11-1.56-.06-2.32-.17s-1.62-.53-2.42-.73c-1.63-.37-3.3-.29-4.92-.53-.76-.11-1.51-.34-2.27-.52a15.15,15.15,0,0,0-2.43-.23,16.06,16.06,0,0,1-4.57-.58,15.7,15.7,0,0,0-2-.76,9.13,9.13,0,0,0-2.21-.18,7.93,7.93,0,0,1-4-.63,4.44,4.44,0,0,1-.8-.63,4.18,4.18,0,0,1-1.22.17,12.27,12.27,0,0,1-2.49-.17c-1.56-.29-3.13-.87-4.77-1.1s-3.47-.34-5.21-.73a17.82,17.82,0,0,1-2.49-.74,10.49,10.49,0,0,0-2.32-.63,36.5,36.5,0,0,1-4.31-.23,3.24,3.24,0,0,1-1-.37c-.28-.17-.63-.51-1-.46A16.55,16.55,0,0,1,218,330c-3.3-.37-6.38-1.57-9.68-2a17.1,17.1,0,0,0-2.37-.11,1.88,1.88,0,0,0-.58.06,5.19,5.19,0,0,0-.46-.36,3.82,3.82,0,0,0-1.1-.52,18.42,18.42,0,0,0-4.31-.47,8.08,8.08,0,0,1-2.08-.34,23.22,23.22,0,0,0-2.27-.76,33.13,33.13,0,0,0-4.77-.4c-1.62-.12-3.12-.74-4.74-.94s-3.25-.41-4.87-.73a12.72,12.72,0,0,1-2.2-.58,8.15,8.15,0,0,1-1-.46c-.17-.11-.36-.18-.52-.28l.17-.87c.29-1.81.63-3.54,1-5.34.74-3.54,1-7.12,1.84-10.64a40.47,40.47,0,0,0,1.28-5.1,27.52,27.52,0,0,1,.58-5.27,17.29,17.29,0,0,0,.63-4.63,10.41,10.41,0,0,1,.81-4.41c1.28-2.55-.28-5.79,1.8-8.07.23-.24,0-.75,0-1.1a3.18,3.18,0,0,1,0-1.15,16.66,16.66,0,0,1,.41-2.43,22,22,0,0,0,.87-4.69,33.25,33.25,0,0,1,1-5.33c.37-1.92.63-3.79,1-5.68q.95-5.67,1.91-11.3c.58-3.71,1.33-7.41,2-11.13.28-1.79.46-3.64.87-5.5a21.91,21.91,0,0,1,.63-2.54c.24-.87.63-1.68.87-2.55a18.54,18.54,0,0,0,.06-3.94,4,4,0,0,1,.46-1.8,3.35,3.35,0,0,1,.74-.81,9.49,9.49,0,0,1-.06-1.51,32.15,32.15,0,0,1,.87-5.16c.34-1.84.58-3.71.87-5.56.58-3.78,1.21-7.46,1.83-11.23s1.21-7.47,1.84-11.24,1.43-7.29,2.08-11c.28-1.79.63-3.59,1-5.38a37.18,37.18,0,0,0,1.15-5,11.41,11.41,0,0,1,.58-4.22c.18-.29.29-.74.74-.74a9.31,9.31,0,0,1,1.28.24c.92.17,1.83.35,2.87.52l10.71,2c1.83.37,3.65.63,5.5,1,.87.18,1.8.29,2.67.46a1.91,1.91,0,0,1,.81.24l.87.87c.41.41-.37,1.56-.63,2-.46.81-.94,1.56-1.33,2.38q-1.22,2.34-2.27,4.68c-1.39,3.19-2.54,6.47-3.78,9.79-.59,1.63-1.15,3.3-1.8,4.92a17.85,17.85,0,0,0-.8,2.37c-.17.87-.24,1.8-.37,2.72-.23,2-.8,3.95-1.1,5.91a104.07,104.07,0,0,0-.88,14,55.9,55.9,0,0,0,.24,6.07c.24,2.32.81,4.64,1.16,6.95a38.49,38.49,0,0,0,2.2,9.22c.29.73.63,1.39,1,2.08a5.63,5.63,0,0,0,.63,1,2.22,2.22,0,0,0,.36.45,4.8,4.8,0,0,0,.11.76,19.48,19.48,0,0,0,1.16,4.31,172.52,172.52,0,0,0,8.7,15.24,34.73,34.73,0,0,0,5.85,6.89c1.1,1.21,2,2.54,3.13,3.78a39.87,39.87,0,0,0,3.59,3.53c2.49,2.27,5,4.52,7.59,6.72a62,62,0,0,0,8.58,5.87,70.05,70.05,0,0,0,9.26,4.81c3.23,1.32,6.6,2.31,9.91,3.47,1.43.53,2.87,1.05,4.3,1.63a9.46,9.46,0,0,0,2.08.58c.81.06,1.63.06,2.44.17a14.59,14.59,0,0,1,2.2.74,13.21,13.21,0,0,0,2.15.52,36,36,0,0,0,4.75.41,41.34,41.34,0,0,1,4.58.35c1.55.23,3.18.58,4.74.8a15.62,15.62,0,0,0,4.58.07,26.8,26.8,0,0,0,3.88-.53c-.12,2.32-1.56.29,0,0Zm-34.58,14.83a14.09,14.09,0,0,0-4.64-6.38,17.1,17.1,0,0,0-6.72-2.94,39.28,39.28,0,0,0-9.73-.81l-5.56.18h-1.33l-.93.93c-.73.63-1.32,1.33-2,2-.28.29-.76.58-.76,1v5.67a1.9,1.9,0,0,0,.41,1.05c.4.68.82,1.34,1.28,2a9.45,9.45,0,0,0,3.19,2.49,20.53,20.53,0,0,0,4.06,1.67,21.38,21.38,0,0,0,4.34.93,24.57,24.57,0,0,1,4.11.41,5.86,5.86,0,0,0,2,.35c.87-.06,1.74-.35,2.6-.46s1.68-.11,2.55-.17a2.94,2.94,0,0,0,1.21-.17c.47-.29.87-.59,1.33-.87s1.15-.81,1.74-1.16a3.18,3.18,0,0,0,1-1.63l1.91-4c-2.54-6.84-1,2,0,0Zm-85.49-4.35c.63-.63,1.21-1.27,1.83-1.91a9.48,9.48,0,0,0,.81-.87c.17-.24.17-.28.46-.24l.93.18c1.83.28,3.65.63,5.5.93.81.11,1.62.28,2.37.41a1.93,1.93,0,0,1,1.1.34c.29.37.64.76.93,1.1.41.53.87,1.05,1.28,1.57.18.17.36.4.52.58a1.09,1.09,0,0,0,.93.46c1.56.34,3.06.73,4.63,1a3.86,3.86,0,0,0,.53.11l.46-.45.76-.76c.17-.18-.24-.76-.37-1-.17-.41-.41-.8-.58-1.28-1.33-2.93-2.5-6-3.88-8.91a33.66,33.66,0,0,0-4.69-7.47h-7.73a18.5,18.5,0,0,1-1.44,1.62,76.37,76.37,0,0,0-11.63,12.8l7.24,1.74c1-1.1-2.66-.63,0,0Zm87.5,16c7.36,1.28,14.66,2.5,22,3.79.52.11,1.32-1.05,1.62-1.52a2.41,2.41,0,0,0,.41-1.67,2.78,2.78,0,0,0-.79-1.44,1.67,1.67,0,0,0-.93-.58c-.52-.11-1.05-.17-1.51-.28-3.72-.74-7.36-1.44-11.07-2.16-.17,0-.28,0-.46-.11-.35-.06-.23-.17-.18-.52s.12-.93.18-1.33c.11-.81.24-1.62.29-2.43.23-1.63.4-3.23.62-4.81.12-.75.18-1.51.3-2.2.06-.29.1-.37-.12-.58l-.41-.41-.73-.73c-.23-.24-.29-.35-.58-.35h-6.24c-.17-.06-.28,0-.28.24a2,2,0,0,1-.18.63c-.11.46-.24.87-.36,1.33-.41,1.67-.81,3.36-1.15,5a29.5,29.5,0,0,0-.47,10c7.65,1.28-.92-5.75,0,0ZM251.92,299.7a154.84,154.84,0,0,0-27.68-4.91v3.13c0,.28-.12.34.23.41.52.1,1.05.23,1.51.34,1.8.41,3.65.8,5.45,1.16.46.1.87.17,1.33.28a9.31,9.31,0,0,1-.24,1.28c-.17.92-.28,1.83-.46,2.78-.28,1.79-.58,3.64-.87,5.44-.11.88-.29,1.8-.41,2.67-.06.35.06.23.35.35l.52.17,1.28.35c.75.24,1.56.41,2.32.63l1.21.35.63.18c.18.05.29.05.46.1s.29.07.29-.1a36.62,36.62,0,0,0,1.67-5.1c.37-1.63.29-3.24.76-4.87a10,10,0,0,1,.73-1.83c.18-.37.35-.64.52-.94l1.1.18,4.64.73,2.2.37c.17,0,.29.06.46.06.37,0,.24-.12.37-.35a5.75,5.75,0,0,1,.23-.93,3.63,3.63,0,0,1,1.43-1.86c-9.5-3.19-.87.8,0,0Z" transform="translate(-34.58)" style="fill: #444"/>
        </g>
        <g id="Path_46" data-name="Path 46">
          <path d="M337.12,180c.52.52,1,1,1.56,1.51.29.28,0,.81-.11,1.15s-.18.94-.29,1.39c-.28,1.74-.46,3.48-.81,5.16a21.15,21.15,0,0,0-1,4.57,5.62,5.62,0,0,1-.94,4c-.23.28-.1.87-.1,1.22s-.07.87-.07,1.32c-.06.93-.17,1.83-.28,2.87-.29,1.8-.64,3.59-1,5.34-.76,3.63-1.31,7.26-2,10.86s-1.33,7.34-1.74,11.13a2,2,0,0,1-.35,1.15,2.75,2.75,0,0,0-.52.93,6.68,6.68,0,0,0-.46,2.16,27.44,27.44,0,0,1-.29,4.34c-.18.73-.58,1.28-.76,2a10.74,10.74,0,0,0-.34,2.32,25.36,25.36,0,0,1-.46,4.69c-.47,1.69-.86,3.41-1.16,5.14s-.45,3.54-.8,5.28-.93,3.36-1.33,5a28.09,28.09,0,0,0-.73,5,46.85,46.85,0,0,1-.53,5c-.34,1.67-.75,3.3-1.14,5a28.7,28.7,0,0,0-.76,5,6.53,6.53,0,0,1-.06,2.16,9.84,9.84,0,0,1-1.16,1.91,2.12,2.12,0,0,0-.28.51c-.24,0-.42-.05-.64-.05-.41-.06-.87-.06-1.27-.12-.93-.06-1.84-.17-2.73-.28q-2.59-.37-5.21-.87a48.83,48.83,0,0,1-10.27-3.37,94.44,94.44,0,0,1-9.5-4.46,49,49,0,0,1-8.4-6c-2.43-2.32-4.86-4.63-7.18-7.07a52,52,0,0,1-6.2-8,81.55,81.55,0,0,1-4.92-9.46A108.91,108.91,0,0,1,259,238.07c-.29-.87-.52-1.68-.74-2.55-.12-.29-.26-.58-.41-.87s.07-.93.11-1.27a15,15,0,0,0-.57-5,17.89,17.89,0,0,1-.76-5,25.9,25.9,0,0,1,1-4.69c.34-1.68.29-3.48.58-5.22s.74-3.47,1.1-5.16a19.59,19.59,0,0,1,1.68-4.63c.75-1.39,1.67-2.78,2.43-4.16a43.75,43.75,0,0,1,5.33-8.12c.93-1,2-1.83,2.94-2.87a4.11,4.11,0,0,0,.93-1.62,3.3,3.3,0,0,1,.29-.87,2.81,2.81,0,0,1,.87-.81c3-2.27,6-4.63,9-6.89,1.52-1.16,3.07-2.32,4.58-3.54a11.71,11.71,0,0,1,4-2.15,23.91,23.91,0,0,1,9.39,1.16c1.68.23,3.36.34,5,.58s3.07.87,4.69,1.14a7.85,7.85,0,0,0,2.32.07,4,4,0,0,1,.58-.11l.37.34a4.65,4.65,0,0,0,.92.59,14,14,0,0,0,3.82.34c1.4.12,2.43,1.05,3.82,1.22a28.79,28.79,0,0,1,4.64.41,30.63,30.63,0,0,0,5,1,50.31,50.31,0,0,0,5.21.58c.52.52-3.37-.36,0,0Z" transform="translate(-34.58)" style="fill: #444"/>
        </g>
        <g id="Path_47" data-name="Path 47">
          <path d="M359.76,367.62c-5.91-4.69-11.87-9.34-17.78-14-3-2.32-5.87-4.64-8.8-7-.29-.23-.12-.23.06-.53l.35-.51.73-1.05c.46-.74.93-1.44,1.39-2.16a45.56,45.56,0,0,1,3.3-4,96.72,96.72,0,0,1,7.36-8.05,12.94,12.94,0,0,1,15.69-1.43,29.56,29.56,0,0,1,6.71,5.33,10.58,10.58,0,0,1,2.32,3.82c.53,1.39.87,2.84,1.44,4.23a6.63,6.63,0,0,1,.81,1.8,5.73,5.73,0,0,1-.41,2.2,47.19,47.19,0,0,1-1.39,4.81,29.22,29.22,0,0,1-2.49,4.69,40.39,40.39,0,0,1-2.88,4.23c-2,2.61-4.22,5.1-6.37,7.65-9.16-7.25,2.72-3.31,0,0Zm2.42-7.94a20.42,20.42,0,0,0,4.47-7.54,12.38,12.38,0,0,0,.46-4.15,12.06,12.06,0,0,0-.29-2.16,4.14,4.14,0,0,0-.28-1.1c-.24-.34-.41-.63-.63-1a22.28,22.28,0,0,0-12.85-9.59,23.4,23.4,0,0,0-2.49-.46c-1,.28-2.15.58-3.19.93.18.17.35.29.53.46-2.43,2.38-4.81,4.81-7.25,7.18,6.95,6.08,14.36,11.64,21.54,17.44,3.89-4.52-7.29-5.85,0,0Z" transform="translate(-34.58)" style="fill: #444"/>
        </g>
        <g id="Path_48" data-name="Path 48">
          <path d="M175.16,380.78a26.51,26.51,0,0,1-8.74-1.83,23.62,23.62,0,0,1-6.95-4.47,20.28,20.28,0,0,1-5.1-7.46,34.82,34.82,0,0,1-1.38-4.23,8.11,8.11,0,0,1,.06-4.58,23.78,23.78,0,0,1,3.86-7.42,18,18,0,0,1,5.56-5.09,17.13,17.13,0,0,1,3.71-1.52c.73-.17,1.32-.29,2-.4a17.19,17.19,0,0,0,2.2-.63,5,5,0,0,1,2.09-.29,11.16,11.16,0,0,1,2.26.63c1.39.46,2.72.87,4,1.39a13.68,13.68,0,0,1,3.78,2.08,43,43,0,0,1,3.25,3.36,37.56,37.56,0,0,1,3.25,3.54,16,16,0,0,1,2.2,4.74,15.61,15.61,0,0,1-.65,9.62,18,18,0,0,1-5.5,8,31.89,31.89,0,0,1-4.81,3.24,7.24,7.24,0,0,1-5.14,1.28c-6.6-.37,2,.52,0,0Zm-3.49-31.92c-1.21,1.1-2.31,2.32-3.47,3.4s-2.54,1.81-3.71,2.88c-1,1-1.8,2.15-2.67,3.19a9.58,9.58,0,0,1-1.38,1.32c-.12.12-.29.18-.41.29s-.06.47-.12.73c-.11.53-.17,1.05-.28,1.52-.29,1.51-.53,3.06-.81,4.57l2.16,4.17c.28.51.51,1,.8,1.55a18.13,18.13,0,0,0,2,1c.65.29,1.28.62,1.9,1,.37.18.74.37,1.1.59a2,2,0,0,0,1.28.36,19.31,19.31,0,0,0,13.16-7.29,28.68,28.68,0,0,0,2.37-3.4c.34-.59.73-1.22,1-1.8.18-.29.36-.63.52-.93a3,3,0,0,0,.06-1.27v-5.88c0-.28,0-.23-.23-.34a1.85,1.85,0,0,1-.58-.41,5,5,0,0,1-1-1.21c-1-1.57-1.74-3-3.65-3.47-2.6-.63-5.38.11-8-.52-1.91,1.79,3,.75,0,0Z" transform="translate(-34.58)" style="fill: #444"/>
        </g>
        <g id="Path_49" data-name="Path 49">
          <path d="M142.38,328.87a35.61,35.61,0,0,0-9.27,5,17.51,17.51,0,0,1-2.26,1.21,5.57,5.57,0,0,1-1.1.46c-.29.11-.41.29-.58,0a8.22,8.22,0,0,0-.46-.75c-1.1-1.8-2.16-3.59-3.24-5.38,6.38-3.72,12.75-7.47,19.11-11.18,3.31-1.91,6.55-3.82,9.84-5.8.17-.1.41-.23.58-.34l.35.52a9.53,9.53,0,0,0,.76,1c.51.76,1,1.52,1.5,2.27.94,1.44,1.81,3,2.61,4.52.73,1.21,1.33,2.49,2,3.78.35.63.63,1.28,1,1.91a6.75,6.75,0,0,1,.46,1c.18.36.52.75.52,1.15v2.83a1.21,1.21,0,0,1-.28,1c-.76,1-1.52,2-2.27,3a3.43,3.43,0,0,1-1.28.87,11.67,11.67,0,0,1-1.51.73,9.54,9.54,0,0,1-3.33,1.1,6,6,0,0,1-1.79-.06,4.86,4.86,0,0,1-1.91-.93c-1.28-.81-2.49-1.68-3.78-2.5-2.94,5.91-6,11.88-8.92,17.78-1.15-1.8-2.27-3.59-3.4-5.38-.29-.41-.52-.87-.8-1.28a4.87,4.87,0,0,1-.46-.75,3.57,3.57,0,0,1,.41-.74c.52-1,1-2,1.56-2.87,2-4.23,4.12-8.16,6-12.17-.34.17-.28.29-.17.37a8.46,8.46,0,0,0,.89-.8l-.34-.34c-.12.11-.53.52-.37.75-5.1,1.39-.1-.17,0,0Zm2.94-2.65a14.2,14.2,0,0,0,2.6,3.47,4.28,4.28,0,0,0,3.36,1.44,13.64,13.64,0,0,0,2.48-1.15,1.88,1.88,0,0,1,1.1-.06c.24.06.74-.52.87-.63.37-.29.76-.63,1.1-.93.63-.58,1.28-1.1,1.91-1.68.17-.17.37-.28.53-.46-.07-.23-.12-.41-.18-.63-.18-.52-.29-1-.46-1.51-.23-.87-.52-1.74-.76-2.6-.06-.24-.11-.47-.17-.63s-.11-.24-.41-.18-.8.11-1.15.18a23.62,23.62,0,0,0-7.18,3.77,19.85,19.85,0,0,1-3.65,1.63c1.1,1.84,4.4-1.33,0,0Z" transform="translate(-34.58)" style="fill: #444"/>
        </g>
        <g id="Path_50" data-name="Path 50">
          <path d="M116.2,301.49c-.52-1.63-1-3.24-1.63-4.92-.1-.41-.28-.87-.41-1.28s-.28-.52-.06-.87c.53-.73,1.22-.73,2-.93,3.59-.93,7.12-2.15,10.72-3.13s7.41-1.91,11.06-2.87c1.79-.46,3.65-1,5.45-1.51.87-.24,1.73-.47,2.6-.76.24-.06.46-.11.63-.17.37-.12.28.06.41.36l.52,1.39a78.6,78.6,0,0,1,2.78,10.43c.17.87.41,1.68.58,2.55a5.4,5.4,0,0,1,.41,2.55,11.9,11.9,0,0,1-1.27,3.12,10.13,10.13,0,0,1-5.91,4.51,6.4,6.4,0,0,1-1.8.11h-2.64a2.19,2.19,0,0,1-1.21-.17c-.29-.17-.58-.29-.87-.47a8,8,0,0,1-1.62-1.27,27.73,27.73,0,0,1-5.22-9.39c-.18-.41-.36-.76-.52-1.1l-2,.51c-1.33.37-2.67.76-4,1.1-2.71.76-5.39,1.52-8.05,2.21-.63-2.08,4.69-1.28,0,0Zm21.26,1.32a12.26,12.26,0,0,0,6.37-1.39,10,10,0,0,0,2.37-2.08,6.51,6.51,0,0,0,.63-.76c.12-.11.24-.29.37-.41s.11-.36.11-.58v-2.72c-.17.17-.35.28-.52.45-.18-.41-.37-.8-.52-1.15-.06-.17-.18-.35-.24-.52s-.06-.46-.41-.37l-2.94.87c-1.79.53-3.59,1.1-5.39,1.63-.8.24-1.67.53-2.49.76-.17.06-.41.11-.58.17s-.58.06-.58.41V299l.46.47,1.1,1.1a29.47,29.47,0,0,1,2.27,2.2c4.81,0-1.28-1.28,0,0Z" transform="translate(-34.58)" style="fill: #444"/>
        </g>
        <g id="Path_51" data-name="Path 51">
          <path d="M327.27,350.48c1.21.87,2.37,1.74,3.59,2.6l-10.05,6.77c2,2.87,3.94,5.8,6,8.71,2.94-2.38,5.9-4.77,8.86-7.08.59,1,1.15,2,1.74,3,.18.23.29.51.46.75-.24.17-.52.34-.76.52l-1.67,1.15c-2.15,1.52-4.31,3-6.46,4.52l7.29,10.43c1.15-1,2.37-2.16,3.54-3.19l1.79-1.63a11.1,11.1,0,0,0,1-1c.24-.24.63-.76,1-.81a2.82,2.82,0,0,1,2.55.88,5,5,0,0,1,.92,1.56,16.9,16.9,0,0,1-1.43,1.62c-4.05,3.95-9.46,6.2-13.43,10.21-6.67-9.5-13.39-18.94-20.05-28.43,5.1-3.59,10.09-7.13,15.13-10.64,1.21.86-4.81,3.4,0,0Z" transform="translate(-34.58)" style="fill: #444"/>
        </g>
        <g id="Path_52" data-name="Path 52">
          <path d="M229.55,373.12c6.2,1.1,12.4,2.28,18.6,3.37a11.67,11.67,0,0,0-.94,1.91,9.05,9.05,0,0,0-.06,2.08c-3.78-.73-7.46-1.43-11.23-2.2-.37,2.08-.63,4.16-1,6.24-.18,1-.35,2-.46,3.06-.06.24-.06.41-.12.63-.06.47-.06.41.41.47s1.16.17,1.81.28L243,390c.52.05,1,.17,1.56.23.36.06.24.18.24.46v3.59c-1.91-.41-3.88-.8-5.8-1.21-1-.18-1.91-.41-2.87-.58l-1.56-.35A2.78,2.78,0,0,0,234,392c-.07.28-.12.58-.18.87-.81,3.82-1.62,7.59-2.37,11.41,2.93.41,5.9.87,8.86,1.27l2.27.37c.46.06.73.8.73,1.28.06,1.21-1,2.15-1.83,2.87l-18-3.12c2.2-11.24,3-22.83,6.13-33.89,6.47,1.15-3.12,11.07,0,0Z" transform="translate(-34.58)" style="fill: #444"/>
        </g>
        <g id="Path_53" data-name="Path 53">
          <path d="M261.88,397.45a27.58,27.58,0,0,0,3.24,5.75,10,10,0,0,0,5.85,3.7,12.31,12.31,0,0,0,6.31-.52,13.67,13.67,0,0,0,6.08-4.81c.23,1.39.46,2.84.63,4.23.06.35.23.74-.07.81l-1.15.63c-.81.45-1.68.92-2.49,1.38L277.91,410h-8.27a15.45,15.45,0,0,1-12.84-5.67,13.44,13.44,0,0,1-1.91-3.41,5.36,5.36,0,0,0-1.07-1.75c-.53-.52-.37-1.56-.37-2.2a12.4,12.4,0,0,0-.24-4.46,7,7,0,0,0-.46-1l-.34-.54.17-.46a18.29,18.29,0,0,0,.75-2,28.75,28.75,0,0,1,3.25-7.53,16.17,16.17,0,0,1,7.82-5.1c.93-.34,1.83-.63,2.77-.92a23.47,23.47,0,0,1,2.73-.88,19.67,19.67,0,0,1,6,.12,9.47,9.47,0,0,1,2.87.73c.93.41,1.74.93,2.61,1.39.17.11.36.18.52.29-.11.29-.17.52-.28.8-.18.52-.37,1-.53,1.51l-1,3.13c-.93-1.15-1.84-2.32-2.78-3.47-.29-.36-1.1,0-1.57-.11-.73-.29-1.43-.52-2.15-.76a6.27,6.27,0,0,0-4.31.18,13,13,0,0,0-3.59,2.43,16.64,16.64,0,0,0-2.6,3.13,6.51,6.51,0,0,0-1.33,3.87c.24,3.48.24,6.84.24,10.28,1.91,4.06,0-3,0,0Z" transform="translate(-34.58)" style="fill: #444"/>
        </g>
        <g id="Path_54" data-name="Path 54">
          <path d="M284.17,373.38c7.13-2.78,14.18-5.56,21.35-8.35l1.28-.51c.23-.12,1-.53,1.15-.29.37.63.63,1.33,1,2,.12.28.59.8.41,1.1a4.48,4.48,0,0,1-.63.75,6.32,6.32,0,0,1-1.63,1.05c-1.21.46-2.49.63-3.71,1a7.54,7.54,0,0,0-.92.29l-.46.17c-.24.12-.18.24-.12.47a18.09,18.09,0,0,0,.35,2.42,36.41,36.41,0,0,0,3,7.6c1.21,2.66,2,5.5,3.12,8.22s2.43,5.74,3.65,8.57c.17.34.28.73.45,1s0,.24-.23.37a3.43,3.43,0,0,1-.52.23l-1.91.88-4.23,1.91c-3.82-9.74-7.59-19.39-11.41-29.13-2.78,1.57-5.5,3.2-8.28,4.77-.63-1.51-1.16-2.93-1.63-4.46,7.7-3,.52,1.56,0,0Z" transform="translate(-34.58)" style="fill: #444"/>
        </g>
        <g id="Path_55" data-name="Path 55">
          <path d="M207.42,369.18c-2.87-1.1-5.74-2.27-8.56-3.36a21.44,21.44,0,0,0,1-2.15c.11-.24.28-.81.52-.87a3.06,3.06,0,0,1,1-.12,15.61,15.61,0,0,1,2.49,1.05c.94.41,1.84.76,2.78,1.15,3.54,1.52,7.12,3,10.64,4.52l5.34,2.27,1.27.52c-.17.41-.28.74-.45,1.16s-.29.73-.41,1-.18.34-.24.52c-.11.35-.11.41-.52.41a7.08,7.08,0,0,1-3.89-1.1,19.34,19.34,0,0,0-1.79-1,5.15,5.15,0,0,0-1-.46l-.52-.17c-.29-.11-.46-.29-.63,0-5,9-7.9,18.94-12.69,28l-4-2.15c-.73-.35-1.38-.76-2.08-1.11l-.41-.23c.07-.18.17-.41.24-.58l.53-1.22q1.83-4.26,3.64-8.51c2.67-6,5.21-11.82,7.7-17.66-2.87-1.1-4.16,9.78,0,0Z" transform="translate(-34.58)" style="fill: #444"/>
        </g>
        <g id="Path_56" data-name="Path 56">
          <path d="M208.28,297.71a8.68,8.68,0,0,1-1.11-.41c-.34.37-.73.63-1,1-.76.74-1.43,1.33-2.2,2,1.91.58,3.4,1,6.07,1.74a16.51,16.51,0,0,1-1.56-1.68c-.46-.74-.18-1.92-.18-2.67-.34-.17,0,.81,0,0Z" transform="translate(-34.58)" style="fill: #444"/>
        </g>
        <g id="Path_57" data-name="Path 57">
          <path d="M142,329a8.83,8.83,0,0,1,.75-.87l.37.37c-.18.17-.37.28-.53.46s-.28.34-.58.05C142.27,328.7,142.09,329.05,142,329Z" transform="translate(-34.58)" style="fill: #444"/>
        </g>
        <g id="Path_58" data-name="Path 58">
          <path d="M258.75,308.83c1.1-2.49,3.82-2.67,6-3.78.36-.17.45-.06.75.12a4.56,4.56,0,0,0,.81.28l1.79.52a17.85,17.85,0,0,1,3.41,1.1,6.74,6.74,0,0,1,2.78,2.43,4,4,0,0,1,.23,2.2c0,.42.12,1-.17,1.28l-1.05,1.07-.92.93-.47.46h-.62c-.93,0-1.91.07-2.87.07a18.29,18.29,0,0,1-5-.73c-.75-.24-1.52-.42-2.2-.64Z" transform="translate(-34.58)" style="fill: #444"/>
        </g>
        <g id="Path_59" data-name="Path 59">
          <path d="M208.28,297.71c0,.8-.29,2,.17,2.72A13.71,13.71,0,0,0,210,302.1c-2.6-.75-4.16-1.21-6.08-1.74.74-.63,1.4-1.27,2-1.91.37-.34.73-.63,1-1s.93.06,1.28.23C208.28,298.52,207.94,297.54,208.28,297.71Z" transform="translate(-34.58)" style="fill: #444"/>
        </g>
      </g>
      <g id="Group_54" data-name="Group 54">
        <g id="Path_155" data-name="Path 155">
          <path d="M231,134.08h-.08L226,135.6l-.31-4.31,6.78-2,4.61.66-3.45,23.91-5.4-.77Z" transform="translate(-34.58)" style="fill: #444"/>
        </g>
        <g id="Path_156" data-name="Path 156">
          <path d="M241.57,155l.48-3.38,3.45-2.33c5.94-4,8.87-6.27,9.34-9.06.28-1.94-.64-3.67-3.4-4.06a9,9,0,0,0-5.4,1.22l-1-4.21a13.29,13.29,0,0,1,8.15-1.34,7.48,7.48,0,0,1,7.41,7.55,7.06,7.06,0,0,1-.1,1.12,14.88,14.88,0,0,1-7.84,9.42l-2.48,1.53v.07l9,1.3-.66,4.6Z" transform="translate(-34.58)" style="fill: #444"/>
        </g>
        <g id="Path_157" data-name="Path 157">
          <path d="M281.37,148.35c-1.06,7.36-4.77,12.05-10.85,11.17s-8.1-6.84-7.18-13.64,4.7-12,10.87-11.09C280.59,135.74,282.3,141.81,281.37,148.35Zm-12.45-1.64c-.78,5.49.16,8.29,2.29,8.62s3.74-2.24,4.53-7.68,0-8.27-2.2-8.62c-2-.28-3.79,2.1-4.64,7.69Z" transform="translate(-34.58)" style="fill: #444"/>
        </g>
        <g id="Path_158" data-name="Path 158">
          <path d="M301.14,143.81l-9.25-1.35-1.05,3.59a10.3,10.3,0,0,1,1.56.15,10.91,10.91,0,0,1,6,2.63,6.82,6.82,0,0,1,2,6.42c-.64,4.45-5,7.83-11.49,6.9a15.15,15.15,0,0,1-6.46-2.32l1.63-4a13.6,13.6,0,0,0,5.21,1.94c2.32.34,4.94-.41,5.31-2.93s-1.38-4.26-6.17-4.94a20.58,20.58,0,0,0-3.23-.25l3.35-12.33,13.17,1.91Z" transform="translate(-34.58)" style="fill: #444"/>
        </g>
        <g id="Path_159" data-name="Path 159">
          <path d="M323.41,142.32l-.51,3.53-12.79,19-5.92-.85,12.62-17.82v-.08l-11-1.58.66-4.59Z" transform="translate(-34.58)" style="fill: #444"/>
        </g>
      </g>
    </g>
  </g>
</svg>
