<?xml version="1.0" encoding="UTF-8"?>
<svg id="Layer_1" data-name="Layer 1" xmlns="http://www.w3.org/2000/svg" viewBox="0 0 124 124">
  <defs>
    <style>
      .cls-1 {
        fill: #fff;
      }

      .cls-2 {
        fill: #03247d;
      }
    </style>
  </defs>
  <rect class="cls-1" width="124" height="124" rx="8" ry="8"/>
  <g id="logo-atol-isolated">
    <g id="atol_jetline" data-name="atol jetline">
      <g id="Path_44" data-name="Path 44">
        <path class="cls-2" d="m61.31,106.5c-.14-.11-.24-.27-.43-.27-.27-.02-.54,0-.82,0-.52,0-1.03-.02-1.55-.03-1-.01-2-.08-3-.21-.49-.08-.98-.2-1.47-.3s-.99-.2-1.48-.3-1.97-.47-2.94-.78-1.99-.6-2.99-.92c-.24-.08-.47-.14-.71-.22-.23-.06-.46-.15-.66-.27-.19-.13-.39-.23-.6-.31-.24-.11-.49-.22-.73-.33-.9-.39-1.79-.83-2.68-1.23-.41-.19-.8-.4-1.18-.63-.38-.24-.69-.54-1.07-.78-.78-.39-1.52-.85-2.22-1.37-.58-.59-1.26-1.08-2-1.44-.09-.02-.18-.05-.27-.09-.08-.05-.11-.13-.17-.17l-.59-.49c-.38-.32-.74-.63-1.11-.96-.73-.65-1.45-1.31-2.13-2-1.37-1.38-2.65-2.85-3.84-4.39-.6-.76-1.15-1.55-1.69-2.35s-1.03-1.7-1.54-2.58c-1.05-1.71-1.95-3.51-2.68-5.38-.33-.93-.65-1.86-.98-2.81s-.66-1.93-.9-2.9-.41-2.01-.6-3.01l-.28-1.51c-.07-.5-.11-1.01-.12-1.51-.03-.5-.1-.99-.2-1.48-.1-.5-.17-1.01-.2-1.52-.07-1.01-.02-2.04.02-3.04.02-.5.02-1.01.02-1.52-.02-.24-.02-.47,0-.71.03-.25.07-.51.12-.76.05-.22.11-.46.14-.68.02-.18.01-.37-.02-.55-.09-.36.02-.74.28-1.01,0-.95.14-1.9.41-2.81.11-.47.16-.97.27-1.44s.24-.94.38-1.42c.53-1.87,1.17-3.7,1.91-5.49.79-1.77,1.68-3.5,2.67-5.18.49-.85.98-1.69,1.53-2.49s1.17-1.61,1.8-2.4,1.25-1.58,1.92-2.32c.62-.71,1.2-1.45,1.88-2.1s1.45-1.26,2.18-1.89,1.49-1.25,2.25-1.85c1.56-1.19,3.21-2.24,4.94-3.16,1.72-.95,3.49-1.8,5.3-2.56.92-.38,1.85-.73,2.79-1.03s1.91-.54,2.86-.87c.43-.15.88-.25,1.33-.31.44-.07.89-.14,1.32-.17.41,0,.82-.08,1.22-.2.17-.1.34-.18.52-.25.24-.03.49-.03.73-.05,1.03-.08,2.05-.2,3.08-.24.52-.03,1.03-.05,1.55-.05s1.03.05,1.55.05,1.03-.02,1.55-.02,1.04.03,1.57.08,1.04.08,1.57.11c.25.02.5.05.76.06.12.02.25.02.38.03.07,0,.13.02.2.02.04.05.09.09.14.12.32.18.69.25,1.06.2.18,0,.36,0,.54.03.19.03.38.1.55.2.37.14.76.2,1.15.17.2.02.39.02.59.05.22.05.43.12.63.2,1.81.49,3.59,1.1,5.32,1.83.43.22.87.42,1.33.59.44.16.92.27,1.36.47.4.21.78.43,1.15.68.43.24.87.46,1.3.69.87.47,1.72.98,2.56,1.51.43.27.84.54,1.25.83s.81.5,1.2.78c.81.58,1.58,1.23,2.29,1.93.36.31.71.63,1.09.92.36.25.7.54,1.01.85.65.73,1.28,1.47,1.93,2.18s1.3,1.45,1.91,2.22c1.21,1.53,2.31,3.14,3.3,4.81,1,1.68,1.92,3.41,2.74,5.19.41.9.8,1.82,1.13,2.75s.57,1.89.84,2.84.55,1.91.76,2.89.33,2,.47,3c.08.5.14,1.01.2,1.51.02.24.03.49.05.73v.36c0,.11-.03.21.07.27.07.04.14.09.2.14v6.32c-.06.08-.12.12-.2.21-.11.2-.15.43-.12.66-.03.52-.08,1.04-.12,1.55-.24,2.03-.63,4.04-1.17,6.01-.25.94-.59,1.89-.88,2.84-.27.93-.6,1.84-1,2.71-.21.44-.43.85-.62,1.31s-.35.88-.54,1.33c-.42.9-.88,1.77-1.39,2.62-1.92,3.41-4.33,6.53-7.15,9.24-.71.68-1.45,1.34-2.18,2.01-.36.33-.73.66-1.09.98s-.74.54-1.11.8-.71.59-1.09.85-.78.52-1.17.78c-.8.5-1.6,1.06-2.4,1.55-1.67.99-3.42,1.84-5.22,2.56-1.79.81-3.65,1.43-5.57,1.85-.46.1-.92.24-1.36.36-.46.12-.92.2-1.39.25-.45.04-.89.14-1.31.28-.44.1-.89.14-1.34.14-.2.07-.4.15-.6.24-.23.07-.47.1-.71.11-.49.02-.98.02-1.47.02h-.74c-.13,0-.25,0-.38.02-.09,0-.17.09-.24.16-.09.09-.12.12-.25.12h-1.2c-.4-.05-.81-.08-1.21-.07-.12-.09.87,0,0,0v-.02Zm.68-3.14c1.04,0,2.08.03,3.13-.02.99-.02,1.97-.13,2.93-.33.42-.07.85-.11,1.28-.11.19-.01.38-.05.55-.12.21-.11.42-.19.65-.25.45-.02.9-.09,1.34-.21.41-.19.82-.35,1.25-.49.46-.13.92-.2,1.37-.3.47-.11.93-.25,1.39-.41.91-.32,1.8-.69,2.67-1.11,1.84-.83,3.63-1.81,5.38-2.78,1.67-.98,3.24-2.12,4.7-3.39,1.47-1.26,2.86-2.61,4.16-4.04.66-.71,1.29-1.45,1.93-2.19.31-.35.6-.73.85-1.12.25-.41.52-.82.78-1.21.97-1.42,1.86-2.9,2.67-4.43.73-1.35,1.34-2.76,1.83-4.22.27-.87.65-1.69.93-2.54.15-.43.27-.87.36-1.31.05-.22.07-.43.1-.65.01-.11.02-.22.02-.33.02-.13.07-.25.14-.36.35-.85.57-1.75.65-2.67.07-.46.11-.92.17-1.37s.17-.92.22-1.37c.03-.49-.02-.98-.03-1.47-.01-.5.01-1,.08-1.5.06-.51.14-1.01.16-1.51.01-.5-.03-1.01-.14-1.5-.09-.5-.13-1.01-.12-1.51,0-.49-.03-1.01.02-1.52.02-.09.02-.19,0-.28-.03-.1-.07-.2-.12-.3-.08-.23-.15-.47-.21-.71-.1-.46-.16-.93-.22-1.39-.05-.47-.14-.93-.25-1.39-.11-.39-.13-.8-.22-1.2-.05-.18-.13-.36-.22-.52-.11-.21-.18-.44-.21-.68-.05-.21-.07-.43-.12-.63-.08-.24-.16-.48-.27-.71-.36-.95-.65-1.91-1.01-2.84-.35-.93-.76-1.84-1.21-2.73-.44-.88-.9-1.76-1.37-2.62-.48-.85-1.01-1.68-1.58-2.47-1.12-1.63-2.34-3.19-3.66-4.66-1.3-1.41-2.7-2.72-4.18-3.94-3.01-2.52-6.36-4.61-9.95-6.2-1.82-.78-3.69-1.42-5.61-1.94-.96-.28-1.93-.5-2.92-.66-.44-.06-.9-.08-1.36-.14s-.85-.28-1.29-.35c-.46-.02-.91-.07-1.36-.14-.22-.05-.46-.11-.68-.16-.25-.04-.5-.05-.76-.03-1.01.03-2.02-.03-3.03-.05-1.02-.05-2.03.03-3.03.22-.21.06-.42.1-.63.11-.22,0-.43,0-.65-.03-.39-.06-.79-.03-1.17.08-.38.1-.78.16-1.17.17-.19.01-.37.05-.54.12-.09.03-.18.08-.25.14-.07.05-.07.07-.14.07h-.22c-.92.05-1.84.24-2.7.57-.44.14-.87.28-1.33.39s-.94.24-1.42.39c-.95.32-1.87.69-2.78,1.11-1.81.8-3.55,1.73-5.22,2.78-.84.52-1.67,1.06-2.47,1.66-.71.59-1.44,1.22-2.22,1.76-.36.27-.74.54-1.08.83-.35.31-.68.64-.99.99-.66.69-1.36,1.37-2.02,2.04-.68.69-1.32,1.42-1.91,2.19-.62.78-1.17,1.61-1.78,2.43-.28.39-.57.78-.82,1.17s-.47.8-.69,1.22c-.22.42-.46.83-.72,1.23-.24.34-.45.71-.62,1.09-.17.38-.31.76-.5,1.12-.09.17-.2.35-.28.5-.05.08-.11.16-.17.24-.06.08-.2.17-.21.29-.21.91-.52,1.79-.92,2.64-.7,1.87-1.24,3.8-1.63,5.76-.1.48-.16.97-.2,1.45-.02.22-.03.44-.07.66-.05.24-.12.47-.2.69-.09.46-.14.92-.17,1.39-.06.49-.22.96-.25,1.45s0,.99,0,1.49-.03.99-.05,1.5c-.02.5,0,1,.05,1.5.03.24.07.47.11.71s.14.49.17.74c.06.46.05.93-.03,1.39-.03.38.04.76.2,1.1.06.39.11.78.12,1.17.05.21.11.41.16.62.05.23.09.47.11.71.16.99.38,1.96.68,2.92.27.96.54,1.91.88,2.84s.76,1.85,1.15,2.76c.36.87.78,1.72,1.22,2.56.89,1.66,1.88,3.25,2.99,4.77.55.78,1.11,1.51,1.69,2.26.61.72,1.26,1.4,1.96,2.04.35.35.71.69,1.06,1.04s.65.71.99,1.04c.71.68,1.45,1.31,2.21,1.91s1.55,1.17,2.34,1.75,1.55,1.12,2.37,1.63c1.61.96,3.35,1.7,5.02,2.54.21.1.41.21.6.3.2.13.43.23.66.29.47.08.94.2,1.39.36.92.29,1.8.65,2.74.88.89.22,1.79.41,2.68.6.89.19,1.8.43,2.7.54.9.09,1.8.14,2.7.14.91.08,1.82.11,2.74.1h-.01Z"/>
      </g>
      <g id="Path_45" data-name="Path 45">
        <path class="cls-2" d="m78.82,70.25c-.03.44.03.88-.03,1.32-.03.19-.09.37-.17.54-.09.2-.13.42-.12.65,0,.21,0,.41-.05.62-.07.2-.16.4-.27.59-.09.38-.13.78-.11,1.17-.02.2-.06.41-.13.6-.06.22-.1.44-.11.66,0,.44-.04.87-.11,1.3-.06.2-.13.4-.22.59-.07.24-.12.48-.14.73,0,.47-.08.94-.22,1.39-.26.84-.4,1.71-.41,2.59-.02.11-.02.24-.03.35-.07.02-.11.05-.17.07-.16.06-.3.12-.46.17s-.22-.03-.36-.11c-.18-.1-.39-.15-.6-.14-.2,0-.38.02-.55,0-.25-.03-.49-.09-.73-.16-.47-.11-.95-.17-1.42-.28s-.99-.17-1.49-.27-1.01-.17-1.53-.27c-.47-.11-.95-.18-1.44-.22-.21,0-.43-.04-.63-.09-.2-.1-.41-.18-.63-.24-.21-.03-.43-.02-.63-.05s-.44-.14-.66-.2c-.44-.1-.9-.08-1.34-.14-.21-.03-.41-.09-.62-.14-.22-.04-.44-.06-.66-.06-.42,0-.84-.04-1.25-.16-.18-.08-.35-.15-.54-.21-.2-.04-.4-.06-.6-.05-.37.04-.75-.02-1.09-.17-.08-.05-.15-.11-.22-.17-.11.03-.22.05-.33.05-.23,0-.45,0-.68-.05-.43-.08-.85-.24-1.3-.3-.47-.06-.95-.09-1.42-.2-.23-.05-.46-.12-.68-.2-.2-.08-.42-.14-.63-.17-.39,0-.78-.02-1.17-.06-.09-.02-.18-.05-.27-.1-.08-.05-.17-.14-.27-.12-.23.01-.46,0-.69-.02-.9-.1-1.74-.43-2.64-.54-.21-.03-.43-.04-.65-.03-.05,0-.11,0-.16.02-.04-.04-.08-.07-.12-.1-.09-.06-.19-.11-.3-.14-.38-.09-.78-.13-1.17-.13-.19,0-.38-.04-.57-.09-.21-.07-.39-.16-.62-.21-.43-.07-.86-.1-1.3-.11-.44-.03-.85-.2-1.29-.25s-.89-.11-1.33-.2c-.2-.04-.4-.09-.6-.16-.1-.03-.19-.08-.28-.12-.05-.03-.1-.05-.14-.08l.05-.24c.08-.49.17-.96.27-1.45.2-.96.27-1.94.5-2.9.15-.45.26-.92.35-1.39,0-.48.06-.96.16-1.44.11-.41.17-.84.17-1.26-.01-.41.06-.82.22-1.2.35-.7-.08-1.58.49-2.2.07-.07,0-.21,0-.3-.02-.1-.02-.21,0-.31.02-.22.06-.44.11-.66.13-.42.21-.84.24-1.28.06-.49.15-.98.28-1.45.1-.52.17-1.03.27-1.55.17-1.03.35-2.06.52-3.08.16-1.01.36-2.02.54-3.03.08-.49.12-.99.24-1.5.04-.23.1-.47.17-.69.07-.24.17-.46.24-.69.05-.36.05-.72.02-1.07,0-.17.04-.34.12-.49.05-.08.12-.16.2-.22-.01-.14-.02-.27-.02-.41.04-.47.12-.95.24-1.41.09-.5.16-1.01.24-1.51.16-1.03.33-2.04.5-3.06s.33-2.04.5-3.06c.17-.99.39-1.99.57-2.99.08-.49.17-.98.27-1.47.14-.44.24-.9.31-1.36-.02-.39.03-.78.16-1.15.05-.08.08-.2.2-.2.12.01.23.03.35.07.25.05.5.09.78.14l2.92.55c.5.1.99.17,1.5.27.24.05.49.08.73.12.08,0,.15.03.22.07l.24.24c.11.11-.1.43-.17.55-.12.22-.25.43-.36.65-.22.43-.43.85-.62,1.28-.38.87-.69,1.76-1.03,2.67-.16.44-.31.9-.49,1.34-.09.21-.16.43-.22.65-.05.24-.07.49-.1.74-.06.54-.22,1.08-.3,1.61-.17,1.27-.25,2.54-.24,3.82,0,.55.01,1.11.07,1.65.07.63.22,1.26.32,1.89.09.86.3,1.7.6,2.51.08.2.17.38.27.57.05.09.11.18.17.27.03.05.06.09.1.12,0,.07.01.14.03.21.06.4.17.8.32,1.17.72,1.42,1.51,2.81,2.37,4.15.45.69.98,1.32,1.6,1.88.3.33.55.69.85,1.03.31.34.63.66.98.96.68.62,1.36,1.23,2.07,1.83.73.6,1.52,1.13,2.34,1.6.81.5,1.65.94,2.52,1.31.88.36,1.8.63,2.7.95.39.14.78.29,1.17.44.18.07.37.13.57.16.22.02.44.02.66.05.2.05.41.12.6.2.19.06.39.11.59.14.43.07.86.1,1.29.11.42,0,.83.04,1.25.09.43.07.87.16,1.29.22.41.07.83.07,1.25.02.36-.02.71-.07,1.06-.14-.03.63-.43.08,0,0v.02Zm-9.42,4.04c-.25-.69-.69-1.29-1.27-1.74-.54-.4-1.17-.67-1.83-.8-.87-.18-1.76-.26-2.65-.22l-1.51.05h-.36l-.25.25c-.2.17-.36.36-.55.54-.08.08-.21.16-.21.27v1.55c0,.1.05.2.11.29.11.18.22.36.35.54.24.29.53.52.87.68.35.19.72.34,1.11.46.38.13.78.21,1.18.25.38,0,.75.04,1.12.11.17.06.35.09.54.09.24-.02.47-.09.71-.12s.46-.03.69-.05c.11,0,.23,0,.33-.05.13-.08.24-.16.36-.24.16-.11.32-.22.47-.32.13-.12.22-.27.27-.44l.52-1.09c-.69-1.86-.27.55,0,0h0Zm-23.3-1.18c.17-.17.33-.35.5-.52.08-.08.15-.15.22-.24.05-.07.05-.08.12-.07l.25.05c.5.08.99.17,1.5.25.22.03.44.08.65.11.11,0,.21.03.3.09.08.1.17.21.25.3.11.14.24.28.35.43.05.05.1.11.14.16.06.08.15.13.25.12.43.09.83.2,1.26.28.05.02.1.02.14.03l.12-.12.21-.21s-.07-.21-.1-.27c-.05-.11-.11-.22-.16-.35-.36-.8-.68-1.64-1.06-2.43-.33-.73-.76-1.42-1.28-2.04h-2.11c-.12.15-.25.3-.39.44-1.19,1.04-2.25,2.21-3.17,3.49.65.16,1.25.3,1.97.47.29-.3-.73-.17,0,0h.01Zm23.85,4.36c2.01.35,3.99.68,6,1.03.14.03.36-.29.44-.41.09-.13.13-.3.11-.46-.03-.15-.11-.29-.22-.39-.06-.08-.15-.14-.25-.16-.14-.03-.29-.05-.41-.08-1.01-.2-2.01-.39-3.01-.59-.05-.02-.08-.02-.13-.03-.09-.02-.06-.05-.05-.14.02-.13.03-.25.05-.36.03-.22.07-.44.08-.66.06-.44.11-.88.17-1.31.03-.21.05-.41.08-.6.02-.08.03-.1-.03-.16l-.11-.11-.2-.2c-.06-.06-.08-.09-.16-.09h-1.7s-.08,0-.08.07c0,.06-.02.12-.05.17-.03.12-.07.24-.1.36-.11.46-.22.92-.31,1.37-.2.9-.24,1.83-.13,2.74,2.08.35-.25-1.57,0,0v.02Zm-9.06-6.46c-2.47-.67-4.99-1.12-7.54-1.34v.85c0,.08-.03.09.06.11.14.03.29.06.41.09.49.11.99.22,1.49.32.12.03.24.05.36.08-.01.12-.04.23-.07.35-.05.25-.08.5-.12.76-.08.49-.16.99-.24,1.48-.03.24-.08.49-.11.73-.02.09.02.06.09.09l.14.05.35.09c.21.07.43.11.63.17.11.03.22.07.33.09l.17.05s.08.02.12.03.08.02.08-.03c.19-.45.34-.92.46-1.39.1-.44.08-.88.21-1.33.05-.17.12-.34.2-.5.05-.1.09-.17.14-.25l.3.05,1.26.2.6.1s.08.02.12.02c.1.02.07-.03.1-.09.01-.09.03-.17.06-.25.07-.21.21-.39.39-.51-2.59-.87-.24.22,0,0v-.02Z"/>
      </g>
      <g id="Path_46" data-name="Path 46">
        <path class="cls-2" d="m84.11,38.37c.14.14.28.28.43.41.08.08,0,.22-.03.32-.03.12-.05.25-.08.38-.08.47-.13.95-.22,1.41-.14.4-.22.82-.27,1.25.06.38-.04.77-.25,1.09-.06.08-.03.24-.03.33,0,.12-.02.24-.02.36-.02.25-.05.5-.08.78-.08.49-.17.98-.27,1.45-.21.99-.36,1.98-.55,2.96-.2,1.01-.36,2-.47,3.03,0,.11-.03.22-.09.31-.06.07-.11.16-.14.25-.07.19-.12.39-.12.59,0,.4-.02.79-.08,1.18-.05.2-.16.35-.21.54-.05.21-.09.42-.09.63,0,.43-.04.86-.12,1.28-.13.46-.23.93-.32,1.4-.08.47-.12.96-.22,1.44s-.25.92-.36,1.37c-.11.45-.17.9-.2,1.36-.02.46-.07.92-.14,1.37-.09.46-.2.9-.31,1.36-.11.45-.18.91-.21,1.37.03.2.02.39-.02.59-.08.19-.19.36-.32.52-.03.04-.06.09-.08.14-.07,0-.11-.02-.17-.02-.11-.02-.24-.02-.35-.03-.25-.02-.5-.05-.74-.08-.47-.07-.95-.15-1.42-.24-.96-.2-1.9-.51-2.8-.92-.88-.36-1.75-.76-2.59-1.22-.82-.46-1.58-1.01-2.29-1.63-.66-.63-1.33-1.26-1.96-1.93-.63-.67-1.2-1.4-1.69-2.18-.5-.83-.95-1.69-1.34-2.58-.41-.92-.77-1.87-1.08-2.83-.08-.24-.14-.46-.2-.7-.03-.08-.07-.16-.11-.24-.05-.1.02-.25.03-.35.03-.46-.03-.93-.16-1.37-.13-.44-.2-.9-.21-1.36.05-.43.14-.86.27-1.28.09-.46.08-.95.16-1.42s.2-.95.3-1.41c.1-.44.25-.86.46-1.26.2-.38.46-.76.66-1.13.4-.79.89-1.53,1.45-2.21.25-.28.55-.5.8-.78.12-.13.2-.28.25-.44.01-.08.04-.16.08-.24.06-.09.14-.16.24-.22.82-.62,1.64-1.26,2.45-1.88.41-.32.84-.63,1.25-.96.32-.27.69-.47,1.09-.59.86-.07,1.73.04,2.56.32.46.06.92.09,1.37.16s.84.24,1.28.31c.21.04.42.04.63.02.05-.02.11-.02.16-.03l.1.09c.08.06.16.12.25.16.34.08.69.11,1.04.09.38.03.66.28,1.04.33.42,0,.85.04,1.26.11.45.13.91.22,1.37.27.47.08.94.13,1.42.16.14.14-.92-.1,0,0h0Z"/>
      </g>
      <g id="Path_47" data-name="Path 47">
        <path class="cls-2" d="m90.28,89.52c-1.61-1.28-3.24-2.54-4.85-3.82-.81-.63-1.6-1.26-2.4-1.89-.08-.06-.03-.06.02-.14.03-.05.06-.09.09-.14l.2-.29c.12-.2.25-.39.38-.59.28-.39.58-.75.9-1.11.63-.77,1.3-1.5,2.01-2.19,1.17-1.08,2.93-1.24,4.27-.39.68.39,1.29.88,1.83,1.45.28.3.5.65.63,1.04.14.38.24.77.39,1.15.1.15.17.32.22.49,0,.21-.03.41-.11.6-.1.44-.23.88-.38,1.31-.19.45-.41.87-.68,1.28-.24.4-.5.79-.78,1.15-.54.71-1.15,1.39-1.74,2.08-2.49-1.97.74-.9,0,0h-.01Zm.66-2.16c.55-.59.96-1.29,1.22-2.05.11-.37.15-.75.12-1.13,0-.2-.04-.39-.08-.59-.01-.1-.04-.2-.08-.3-.07-.09-.11-.17-.17-.27-.8-1.28-2.05-2.21-3.5-2.61-.22-.05-.44-.1-.68-.13-.28.08-.59.16-.87.25.05.05.09.08.14.12-.66.65-1.31,1.31-1.97,1.96,1.89,1.66,3.91,3.17,5.87,4.75,1.06-1.23-1.99-1.6,0,0h0Z"/>
      </g>
      <g id="Path_48" data-name="Path 48">
        <path class="cls-2" d="m39.97,93.11c-.82-.03-1.62-.2-2.38-.5-.7-.29-1.34-.7-1.89-1.22-.61-.56-1.09-1.26-1.39-2.04-.15-.38-.28-.76-.38-1.15-.11-.41-.11-.84.02-1.25.23-.73.59-1.42,1.05-2.02.4-.56.92-1.04,1.51-1.39.32-.18.66-.32,1.01-.41.2-.05.36-.08.55-.11.2-.04.4-.1.6-.17.18-.07.38-.09.57-.08.21.04.42.09.62.17.38.12.74.24,1.1.38.37.13.72.33,1.03.57.31.29.61.6.89.92.32.3.61.62.88.96.27.39.47.83.6,1.29.22.87.16,1.79-.18,2.62-.29.85-.81,1.61-1.5,2.19-.41.33-.85.63-1.31.88-.41.29-.91.41-1.4.35-1.8-.1.54.14,0,0h0Zm-.95-8.7c-.33.3-.63.63-.95.93s-.69.49-1.01.78c-.27.27-.49.59-.73.87-.11.13-.24.25-.38.36-.03.03-.08.05-.11.08-.02.07-.02.13-.03.2-.03.14-.05.29-.08.41-.08.41-.14.83-.22,1.25.2.38.39.76.59,1.14.08.14.14.28.22.42.17.1.35.19.54.27.18.08.35.17.52.27.1.05.2.1.3.16.1.07.22.11.35.1,1.41-.15,2.71-.87,3.58-1.99.24-.29.45-.6.65-.93.09-.16.2-.33.28-.49.05-.08.1-.17.14-.25.03-.11.04-.23.02-.35v-1.6c0-.08,0-.06-.06-.09-.06-.03-.11-.07-.16-.11-.11-.09-.2-.21-.27-.33-.27-.43-.47-.81-.99-.95-.71-.17-1.47.03-2.19-.14-.52.49.82.2,0,0h0Z"/>
      </g>
      <g id="Path_49" data-name="Path 49">
        <path class="cls-2" d="m31.03,78.96c-.9.33-1.76.78-2.53,1.36-.2.12-.4.24-.62.33-.1.05-.2.09-.3.12-.08.03-.11.08-.16,0s-.08-.14-.12-.2c-.3-.49-.59-.98-.88-1.47,1.74-1.01,3.47-2.04,5.21-3.05.9-.52,1.79-1.04,2.68-1.58.05-.03.11-.06.16-.09l.09.14c.06.1.13.19.21.28.14.2.27.41.41.62.25.39.49.82.71,1.23.2.33.36.68.54,1.03.09.17.17.35.27.52.05.08.09.17.12.27.05.1.14.21.14.32v.77c.02.1-.01.19-.08.27-.21.27-.41.55-.62.83-.1.1-.22.19-.35.24-.13.08-.27.14-.41.2-.28.16-.59.26-.91.3-.16.02-.33.01-.49-.02-.19-.04-.37-.13-.52-.25-.35-.22-.68-.46-1.03-.68-.8,1.61-1.63,3.24-2.43,4.85-.31-.49-.62-.98-.93-1.47-.08-.11-.14-.24-.22-.35-.05-.06-.09-.13-.12-.2.03-.07.07-.14.11-.2.14-.27.28-.54.43-.78.55-1.15,1.12-2.23,1.63-3.32-.09.05-.08.08-.05.1.09-.07.17-.14.24-.22l-.09-.09s-.14.14-.1.2c-1.39.38-.03-.05,0,0h0Zm.8-.72c.19.35.43.67.71.95.23.26.57.41.92.39.23-.08.46-.19.68-.31.1-.04.2-.04.3-.02.07.02.2-.14.24-.17.1-.08.21-.17.3-.25.17-.16.35-.3.52-.46.05-.05.1-.08.14-.12-.02-.06-.03-.11-.05-.17-.05-.14-.08-.27-.13-.41-.06-.24-.14-.47-.21-.71-.02-.07-.03-.13-.05-.17-.03-.08-.03-.07-.11-.05-.11.02-.22.03-.32.05-.71.23-1.37.58-1.96,1.03-.32.18-.65.33-.99.44.3.5,1.2-.36,0,0h0Z"/>
      </g>
      <g id="Path_50" data-name="Path 50">
        <path class="cls-2" d="m23.9,71.49c-.14-.44-.28-.88-.44-1.34-.03-.11-.08-.24-.11-.35s-.08-.14-.02-.24c.14-.2.33-.2.55-.25.98-.25,1.94-.59,2.92-.85s2.02-.52,3.01-.78c.49-.12.99-.27,1.49-.41.24-.07.47-.13.71-.21.07-.02.13-.03.17-.05.1-.03.08.02.11.1l.14.38c.32.93.57,1.88.76,2.84.05.24.11.46.16.69.09.22.13.46.11.7-.07.3-.19.59-.35.85-.36.6-.94,1.04-1.61,1.23-.16.03-.33.04-.49.03h-.72c-.11.02-.23,0-.33-.05-.08-.05-.16-.08-.24-.13-.16-.1-.31-.21-.44-.35-.64-.75-1.12-1.62-1.42-2.56-.05-.11-.1-.2-.14-.3l-.54.14c-.36.1-.73.21-1.09.3-.74.21-1.47.41-2.19.6-.17-.57,1.28-.35,0,0h0Zm5.79.36c.6.03,1.2-.1,1.74-.38.24-.15.46-.35.65-.57.06-.06.12-.13.17-.2.03-.03.07-.08.1-.11s.03-.1.03-.16v-.74s-.09.08-.14.12c-.05-.11-.1-.22-.14-.32-.02-.05-.05-.09-.07-.14-.03-.08-.02-.13-.11-.1l-.8.24c-.49.14-.98.3-1.47.44-.22.07-.46.14-.68.2-.05.02-.11.03-.16.05-.08.02-.16.02-.16.11v.52l.12.13.3.3c.22.19.42.39.62.6,1.31,0-.35-.35,0,0h0Z"/>
      </g>
      <g id="Path_51" data-name="Path 51">
        <path class="cls-2" d="m81.42,84.85c.33.24.65.47.98.71-.92.62-1.83,1.23-2.74,1.85.54.78,1.07,1.58,1.63,2.37.8-.65,1.61-1.3,2.42-1.93.16.27.31.55.47.83.05.06.08.14.12.2-.07.05-.14.09-.21.14l-.46.31c-.59.41-1.17.83-1.76,1.23l1.99,2.84c.31-.28.65-.59.96-.87l.49-.44c.09-.08.18-.17.27-.26.07-.07.17-.21.27-.22.26-.04.52.05.7.24.11.13.19.27.25.42-.12.16-.25.3-.39.44-1.11,1.07-2.58,1.69-3.66,2.78-1.82-2.59-3.65-5.16-5.46-7.75,1.39-.98,2.75-1.94,4.12-2.9.33.24-1.31.93,0,0h.02Z"/>
      </g>
      <g id="Path_52" data-name="Path 52">
        <path class="cls-2" d="m54.79,91.02c1.69.3,3.38.62,5.07.92-.1.17-.19.34-.25.52-.03.19-.03.38-.02.57-1.03-.2-2.04-.39-3.06-.6-.1.57-.17,1.13-.27,1.7-.05.28-.09.55-.12.83-.02.07-.02.11-.03.17-.02.13-.02.11.11.13.16.03.32.05.49.08l1.76.28c.14.02.28.05.43.07.1.02.07.05.07.12v.98c-.52-.11-1.06-.22-1.58-.33-.27-.05-.52-.11-.78-.16l-.43-.09c-.06-.02-.11-.03-.17-.03-.02.08-.03.16-.05.24-.22,1.04-.44,2.07-.65,3.11.8.11,1.61.24,2.41.35l.62.1c.12.02.2.22.2.35.02.33-.29.59-.5.78l-4.89-.85c.6-3.06.82-6.22,1.67-9.24,1.76.32-.85,3.02,0,0h-.03Z"/>
      </g>
      <g id="Path_53" data-name="Path 53">
        <path class="cls-2" d="m63.6,97.65c.23.55.53,1.08.88,1.57.4.52.96.87,1.6,1.01.58.1,1.17.05,1.72-.14.67-.27,1.24-.72,1.66-1.31.06.38.12.77.17,1.15.02.09.06.2-.02.22l-.32.17c-.22.12-.46.25-.68.38l-.65.36h-2.25c-1.35.07-2.65-.5-3.5-1.55-.22-.28-.39-.6-.52-.93-.06-.18-.16-.34-.29-.48-.14-.14-.1-.43-.1-.6.05-.41.03-.82-.07-1.22-.03-.1-.08-.19-.12-.28l-.09-.15s.03-.08.05-.12c.08-.18.15-.36.21-.55.19-.72.49-1.42.89-2.05.56-.66,1.3-1.15,2.13-1.39.25-.09.5-.17.76-.25.24-.09.49-.17.74-.24.55-.07,1.1-.06,1.64.03.27.03.53.09.78.2.25.11.47.25.71.38.05.03.1.05.14.08-.03.08-.05.14-.08.22-.05.14-.1.27-.14.41l-.28.85c-.25-.32-.5-.63-.76-.95-.08-.1-.3,0-.43-.03-.2-.08-.39-.14-.59-.21-.38-.12-.8-.11-1.17.05-.36.16-.69.39-.98.66-.27.26-.51.54-.71.85-.23.3-.36.68-.36,1.06.07.95.07,1.86.07,2.8.52,1.11,0-.82,0,0h-.03Z"/>
      </g>
      <g id="Path_54" data-name="Path 54">
        <path class="cls-2" d="m69.68,91.09c1.94-.76,3.86-1.51,5.82-2.27l.35-.14c.06-.03.28-.14.31-.08.1.17.17.36.27.54.03.08.16.22.11.3-.05.07-.11.14-.17.2-.13.12-.28.21-.44.29-.33.12-.68.17-1.01.27-.09.02-.17.05-.25.08l-.12.05c-.07.03-.05.07-.03.13.02.22.05.44.09.66.19.72.46,1.41.81,2.07.33.73.55,1.5.85,2.24.32.78.66,1.57.99,2.34.05.09.08.2.12.28s0,.07-.06.1c-.05.02-.09.05-.14.06l-.52.24-1.15.52c-1.04-2.65-2.07-5.28-3.11-7.94-.76.43-1.5.87-2.26,1.3-.17-.41-.32-.8-.44-1.21,2.1-.83.14.42,0,0h0Z"/>
      </g>
      <g id="Path_55" data-name="Path 55">
        <path class="cls-2" d="m48.76,89.94c-.78-.3-1.57-.62-2.33-.92.09-.2.2-.39.27-.59.03-.07.08-.22.14-.24.09-.03.19-.04.28-.03.23.07.46.17.68.29.25.11.5.2.76.31.96.41,1.94.83,2.9,1.23.49.21.96.41,1.45.62l.35.14c-.05.11-.08.2-.12.32s-.08.2-.11.28c-.02.05-.05.09-.07.14-.03.09-.03.11-.14.11-.37,0-.74-.1-1.06-.3-.16-.1-.32-.19-.49-.27-.08-.05-.17-.09-.27-.12l-.14-.05c-.08-.03-.12-.08-.17,0-1.36,2.45-2.15,5.16-3.46,7.63l-1.09-.59c-.2-.09-.38-.2-.57-.3-.04-.02-.08-.04-.11-.07.02-.05.05-.11.07-.16l.14-.33c.33-.77.66-1.55.99-2.32.73-1.63,1.42-3.22,2.1-4.82-.78-.3-1.13,2.67,0,0h0Z"/>
      </g>
      <g id="Path_56" data-name="Path 56">
        <path class="cls-2" d="m48.99,70.46c-.1-.03-.2-.07-.3-.11-.09.1-.2.17-.28.27-.21.2-.39.36-.6.55.52.16.93.27,1.65.47-.15-.14-.29-.3-.43-.46-.13-.2-.05-.52-.05-.73-.09-.05,0,.22,0,0h0Z"/>
      </g>
      <g id="Path_57" data-name="Path 57">
        <path class="cls-2" d="m30.92,78.99c.06-.08.13-.16.21-.24l.1.1s-.1.08-.14.12c-.08.06-.08.09-.16.02.07-.08.03.01,0,0Z"/>
      </g>
      <g id="Path_58" data-name="Path 58">
        <path class="cls-2" d="m62.75,73.5c.3-.68,1.04-.73,1.63-1.03.1-.05.12-.02.21.03.07.03.14.06.22.08l.49.14c.32.07.63.17.93.3.31.15.57.38.76.66.08.19.1.4.07.6,0,.11.03.27-.05.35l-.29.29-.25.25-.13.12h-.17c-.25,0-.52.02-.78.02-.46,0-.92-.07-1.36-.2-.2-.07-.41-.11-.6-.17l-.67-1.45Z"/>
      </g>
      <g id="Path_59" data-name="Path 59">
        <path class="cls-2" d="m48.99,70.46c0,.22-.08.55.05.74.13.16.27.32.43.46-.71-.2-1.13-.33-1.66-.47.2-.17.38-.35.55-.52.1-.09.2-.17.28-.27s.25.02.35.06c0,.22-.09-.05,0,0Z"/>
      </g>
    </g>
  </g>
  <g>
    <path class="cls-2" d="m52.69,30.29l1.04-5.81c-.39.1-1.07.12-1.46.09l.23-1.26c.76,0,1.58-.29,2.11-.7l1.19.21-1.4,7.77-1.72-.31Z"/>
    <path class="cls-2" d="m55.99,30.89l.02-.11c.24-1.35,1.05-2.34,2.95-3.27,1.24-.6,1.62-.82,1.74-1.5.12-.67-.14-1.11-.79-1.23-.76-.14-1.12.28-1.35.94l-1.63-.29c.35-1.32,1.43-2.28,3.21-1.96,2,.36,2.47,1.67,2.26,2.83-.2,1.13-.79,1.59-2.4,2.34-1.08.5-1.54.87-1.74,1.2l3.68.66-.46,1.37-5.49-.99Z"/>
    <path class="cls-2" d="m69.28,29.21c-.38,2.14-1.41,3.95-3.72,3.54-2.28-.41-2.65-2.41-2.26-4.56.38-2.13,1.51-3.88,3.74-3.48,2.17.39,2.63,2.3,2.24,4.51Zm-4.23-.73c-.26,1.43-.32,2.73.78,2.92,1.07.19,1.43-.97,1.7-2.5.27-1.51.29-2.67-.72-2.86-.99-.18-1.45.75-1.76,2.43Z"/>
    <path class="cls-2" d="m74.72,28.18c-.03-.4-.18-.81-.86-.93-1.04-.19-1.49.74-1.72,1.78.4-.34,1.01-.56,1.89-.4,1.42.26,2.24,1.49,1.97,3.01-.3,1.66-1.58,2.7-3.37,2.38-2.25-.4-2.69-2.27-2.3-4.47.36-2.02,1.46-3.99,3.84-3.56,1.69.3,2.28,1.5,2.19,2.49l-1.63-.29Zm-.43,3.3c.13-.74-.02-1.45-.96-1.62-.75-.14-1.28.23-1.44,1.12-.11.63.04,1.52.94,1.68.82.15,1.31-.4,1.46-1.19Z"/>
    <path class="cls-2" d="m76.89,32.33c.18-.99.98-1.48,1.6-1.63-.53-.48-.81-1.01-.67-1.8.24-1.32,1.36-2.02,3.11-1.71,1.6.29,2.5,1.31,2.26,2.65-.16.89-.7,1.25-1.27,1.38.52.31,1.11,1.09.93,2.12-.29,1.6-1.72,2.2-3.49,1.88-1.59-.29-2.75-1.36-2.47-2.9Zm4.28.69c.14-.77-.33-1.22-1.09-1.36-.84-.15-1.36.23-1.48.88-.12.69.31,1.24,1.1,1.38.73.13,1.32-.12,1.46-.91Zm-1.75-3.77c-.09.53.22.94.93,1.07.69.12,1.11-.07,1.22-.68.11-.59-.22-1.02-.91-1.15-.71-.13-1.13.14-1.25.75Z"/>
  </g>
</svg>